<svg xmlns="http://www.w3.org/2000/svg" viewBox="0 0 20 20" class="design-iconfont">
  <g fill="#FD2423" fill-rule="evenodd">
    <rect fill-opacity=".05" width="20" height="20" rx="4"/>
    <path d="M15.2716981,7.7508153 L12.5450135,10.5 L14.5908356,10.5 C14.5908356,12.7746813 12.7568733,14.6237771 10.5008086,14.6237771 C9.81185984,14.6237771 9.15687332,14.4525645 8.59245283,14.1427513 L7.59460916,15.1471983 C8.43396226,15.6836644 9.42857143,16 10.4991914,16 C13.5121294,16 15.9541779,13.5394308 15.9541779,10.5 L18,10.5 L15.2716981,7.7508153 Z M6.40916442,10.5 C6.40916442,8.22531871 8.24312668,6.37622295 10.4991914,6.37622295 C11.1881402,6.37622295 11.8431267,6.54743552 12.4075472,6.85724874 L13.4037736,5.85280166 C12.5644205,5.31633561 11.5698113,5 10.4991914,5 C7.48625337,5 5.04420485,7.46056923 5.04420485,10.5 L3,10.5 L5.72668464,13.2491847 L8.45336927,10.5 L6.40916442,10.5 Z" fill-rule="nonzero"/>
  </g>
</svg>
