<svg xmlns="http://www.w3.org/2000/svg" viewBox="0 0 20 20" class="design-iconfont">
  <g fill="#FD2423" fill-rule="evenodd">
    <rect fill-opacity=".05" width="20" height="20" rx="4"/>
    <path d="M10.8692569,15 C10.8692569,15 10.8623916,15 10.8692569,15 C10.5819543,14.9989598 10.3291731,14.8106014 10.2468,14.5361799 L8.23525719,7.81714472 L7.284245,10.7027379 C7.19653608,10.9676362 6.94812,11.1464249 6.66832648,11.1460235 L4.64991835,11.1460235 C4.47752272,11.14611 4.31216304,11.0778687 4.1902609,10.9563303 C4.06835876,10.8347919 4,10.6699256 4,10.4980443 C4.00214201,10.1410636 4.29186937,9.85220072 4.64991835,9.85006519 L6.19625305,9.85006519 L7.65366534,5.44328553 C7.74258776,5.17731421 8.00248968,5.00684485 8.28331453,5 C8.56729183,5.00627668 8.81532495,5.19315827 8.89890612,5.46382008 L10.8829876,12.1082138 L12.3881303,7.20338983 C12.4692713,6.94345679 12.7039456,6.761217 12.9765875,6.7464146 C13.2502201,6.73956975 13.5032567,6.88950456 13.6059097,7.14211213 L14.741959,9.85723598 L16.3500817,9.85723598 C16.7057714,9.85723598 17,10.1502608 17,10.5052151 C17,10.8601695 16.7126367,11.1531943 16.3500817,11.1531943 L14.3110776,11.1531943 C14.0493757,11.1521242 13.8130761,10.9968517 13.7088897,10.7574967 L13.0932982,9.30443286 L11.4851754,14.5501956 C11.3976743,14.8161694 11.1499949,14.9970494 10.8692569,15 Z" fill-rule="nonzero"/>
  </g>
</svg>
