<?xml version="1.0" standalone="no"?><!DOCTYPE svg PUBLIC "-//W3C//DTD SVG 1.1//EN" "http://www.w3.org/Graphics/SVG/1.1/DTD/svg11.dtd"><svg t="1692419187457" class="icon" viewBox="0 0 1024 1024" version="1.1" xmlns="http://www.w3.org/2000/svg" p-id="4277" width="16" height="16" xmlns:xlink="http://www.w3.org/1999/xlink"><path d="M747.054545 512.129293c0-18.618182 14.99798-33.616162 33.616162-33.616162s33.616162 14.99798 33.616162 33.616162V747.313131c0 26.763636-10.60202 52.363636-29.478788 71.240404a100.688162 100.688162 0 0 1-71.240404 29.478788H243.2c-26.763636 0-52.363636-10.60202-71.240404-29.478788A100.688162 100.688162 0 0 1 142.480808 747.313131V276.945455c0-55.59596 45.123232-100.719192 100.719192-100.719192h369.519192c18.488889 0 33.616162 14.99798 33.616162 33.616161s-14.99798 33.616162-33.616162 33.616162H243.2c-8.921212 0-17.454545 3.490909-23.789899 9.826262-6.335354 6.335354-9.826263 14.868687-9.826263 23.789899V747.313131c0 8.921212 3.490909 17.454545 9.826263 23.789899 6.335354 6.335354 14.868687 9.826263 23.789899 9.826263h470.238384c8.921212 0 17.454545-3.490909 23.789899-9.826263 6.335354-6.335354 9.826263-14.868687 9.826262-23.789899V512.129293zM478.383838 531.911111l345.6-345.987879c13.187879-13.187879 34.521212-13.187879 47.709091 0s13.187879 34.521212 0 47.709091L502.173737 603.151515c-6.335354 6.335354-14.868687 9.955556-23.789899 9.955556-8.921212 0-17.583838-3.620202-23.789899-9.955556l-100.719192-100.719192c-13.187879-13.187879-13.187879-34.521212 0-47.709091s34.521212-13.187879 47.709091 0l76.8 77.187879z m0 0" fill="#f2413b" p-id="4278"></path></svg>