<svg xmlns="http://www.w3.org/2000/svg" viewBox="0 0 20 20" class="design-iconfont">
  <g fill="#FD2423" fill-rule="evenodd">
    <rect fill-opacity=".05" width="20" height="20" rx="4"/>
    <g fill-rule="nonzero" stroke="#FD2423" stroke-width=".2">
      <path d="M6.93738532,6.88398148 C6.87132293,6.88398148 6.80604322,6.86968287 6.74603655,6.84205247 L0.266098286,3.85746913 C0.103906247,3.78278693 1.62847675e-07,3.62055078 1.62847675e-07,3.44199074 C1.62847675e-07,3.2634307 0.103906247,3.10119455 0.266098286,3.02651235 L6.74603655,0.0419290098 C6.8670416,-0.0135335663 7.00620435,-0.0135335663 7.1272094,0.0419290098 L13.6071477,3.02651235 C13.7693397,3.10119455 13.8732458,3.2634307 13.8732458,3.44199074 C13.8732458,3.62055078 13.7693397,3.78278693 13.6071477,3.85746913 L7.1272094,6.84205247 C7.06766993,6.86946866 7.00293339,6.88376789 6.93738532,6.88398148 L6.93738532,6.88398148 Z M1.55065076,3.44199075 L6.93738532,5.92266358 L12.3241199,3.44199075 L6.93738532,0.961317897 L1.55065076,3.44199075 Z M13.1886199,8.50930247 L6.93738532,11.3886821 L0.686150755,8.50930247 L0.686150755,9.51636111 L6.74603655,12.308071 C6.8670416,12.3635336 7.00620435,12.3635336 7.1272094,12.308071 L13.1886199,9.51636111 L13.1886199,8.50930247 Z" transform="translate(3 4)"/>
      <path d="M13.1886199,5.77324383 L6.93738532,8.65338581 L0.686150755,5.77324383 L0.686150755,6.78487654 L6.74603655,9.57582407 C6.8670416,9.63128665 7.00620435,9.63128665 7.1272094,9.57582407 L13.1886199,6.78487654 L13.1886199,5.77324383 Z" transform="translate(3 4)"/>
    </g>
  </g>
</svg>
