<svg xmlns="http://www.w3.org/2000/svg" viewBox="0 0 20 20" class="design-iconfont">
  <g fill="#FD2423" fill-rule="evenodd">
    <rect fill-opacity=".05" width="20" height="20" rx="4"/>
    <path d="M15.1216849,4 L4.87831513,4 C3.84171367,4 3,4.8980322 3,6 L3,14 C3,15.1019678 3.84171367,16 4.87831513,16 L15.1216849,16 C16.1566063,16 17,15.1019678 17,14 L17,6 C17,4.8980322 16.1566063,4 15.1216849,4 Z M15.975159,11.273703 L12.2185287,11.273703 C11.5599424,11.273703 11.024001,10.7030411 11.024001,10.0017889 C11.024001,9.30053667 11.5599424,8.72987478 12.2185287,8.72987478 L15.975159,8.72987478 L15.975159,11.273703 L15.975159,11.273703 Z M15.975159,7.63685152 L12.2185287,7.63685152 C10.9954398,7.63685152 9.99915997,8.69767442 9.99915997,10 C9.99915997,11.3041145 10.9954398,12.3631485 12.2185287,12.3631485 L15.975159,12.3631485 L15.975159,14 C15.975159,14.5008945 15.5921037,14.9087657 15.1216849,14.9087657 L4.87831513,14.9087657 C4.40789632,14.9087657 4.02484099,14.5008945 4.02484099,14 L4.02484099,6 C4.02484099,5.49910555 4.40789632,5.09123435 4.87831513,5.09123435 L15.1216849,5.09123435 C15.5921037,5.09123435 15.975159,5.49910555 15.975159,6 L15.975159,7.63685152 Z M11.7077883,10 C11.7077883,10.4025045 12.0135605,10.7280859 12.3898956,10.7280859 C12.7662306,10.7280859 13.0720029,10.4025045 13.0720029,10 C13.0720029,9.59749553 12.7662306,9.27191413 12.3898956,9.27191413 C12.0135605,9.27370304 11.7077883,9.59928444 11.7077883,10 L11.7077883,10 Z" stroke="#FD2423" stroke-width=".2" fill-rule="nonzero"/>
  </g>
</svg>
