<svg xmlns="http://www.w3.org/2000/svg" viewBox="0 0 20 20" class="design-iconfont">
  <g fill="#FD2423" fill-rule="evenodd">
    <rect fill-opacity=".05" width="20" height="20" rx="4"/>
    <g fill-rule="nonzero" stroke="#FD2423" stroke-width=".5">
      <path d="M6.3,9.6 C6.22263846,9.6 6.06791538,9.52368421 5.99055383,9.44736842 L3.1281768,6.01315789 C2.97345372,5.93684211 2.97345372,5.70789474 3.05081526,5.63157895 L3.90179221,4.02894737 C3.97915376,3.87631579 4.0565153,3.8 4.21123838,3.8 L8.38876162,3.8 C8.5434847,3.8 8.69820779,3.87631579 8.69820779,4.02894737 L9.54918474,5.63157895 C9.62654628,5.78421053 9.62654628,5.93684211 9.4718232,6.01315789 L6.53208462,9.44736842 C6.53208462,9.52368421 6.37736154,9.6 6.3,9.6 Z M3.82443067,5.70789474 L6.3,8.60789474 L8.77556933,5.70789474 L8.156677,4.56315789 L4.443323,4.56315789 L3.82443067,5.70789474 Z" transform="translate(4 4)"/>
      <path d="M6.2,12.4 C2.79,12.4 4.52970994e-14,9.61 4.52970994e-14,6.2 C4.52970994e-14,2.79 2.79,-1.15463195e-14 6.2,-1.15463195e-14 C9.61,-1.15463195e-14 12.4,2.79 12.4,6.2 C12.4,6.4325 12.245,6.5875 12.0125,6.5875 C11.78,6.5875 11.625,6.4325 11.625,6.2 C11.625,3.1775 9.2225,0.775 6.2,0.775 C3.1775,0.775 0.775,3.1775 0.775,6.2 C0.775,9.2225 3.1775,11.625 6.2,11.625 C6.4325,11.625 6.5875,11.78 6.5875,12.0125 C6.5875,12.245 6.4325,12.4 6.2,12.4 Z" transform="translate(4 4)"/>
      <path d="M12.0166667,10.4 L8.18333333,10.4 C7.95333333,10.4 7.8,10.24 7.8,10 C7.8,9.76 7.95333333,9.6 8.18333333,9.6 L12.0166667,9.6 C12.2466667,9.6 12.4,9.76 12.4,10 C12.4,10.24 12.2466667,10.4 12.0166667,10.4 Z" transform="translate(4 4)"/>
      <path d="M10,12.4 C9.76,12.4 9.6,12.2466667 9.6,12.0166667 L9.6,8.18333333 C9.6,7.95333333 9.76,7.8 10,7.8 C10.24,7.8 10.4,7.95333333 10.4,8.18333333 L10.4,12.0166667 C10.4,12.2466667 10.24,12.4 10,12.4 Z" transform="translate(4 4)"/>
    </g>
  </g>
</svg>
