<svg xmlns="http://www.w3.org/2000/svg" viewBox="0 0 20 20" class="design-iconfont">
  <g fill="#FD2423" fill-rule="evenodd">
    <rect fill-opacity=".05" width="20" height="20" rx="4"/>
    <path d="M13.8151408,12.0298966 C14.2008319,12.0298966 14.5129137,11.7161913 14.5129137,11.3300617 C14.5129137,11.107191 14.4092157,10.9089717 14.2476286,10.7808471 L14.2512337,10.7764314 C13.7143027,10.3595137 13.1173854,10.0177845 12.4728047,9.77036669 C13.2932021,9.06436031 13.8151408,8.01865865 13.8151408,6.84924811 C13.8151408,4.72368405 12.0966809,3 9.97752028,3 C7.85834231,3 6.1398824,4.72368405 6.1398824,6.84924811 C6.1398824,8.01865865 6.66183844,9.06436031 7.48223584,9.77036669 C4.86430951,10.7777874 3.00136923,13.3168444 3,16.2988265 L3,16.3001825 C3.00136923,16.6856341 3.31345094,16.9986961 3.69777283,16.9986961 C4.08342929,16.9986961 4.39415909,16.6856341 4.39551099,16.3001825 C4.39551099,13.2129888 6.90036274,10.701243 9.97753762,10.701243 C11.2392795,10.701243 12.4008592,11.1281221 13.3359951,11.8385094 C13.4609768,11.9570203 13.6294794,12.0298966 13.8151408,12.0298966 Z M9.97752026,9.29879179 C8.63107644,9.29879179 7.5354107,8.19978891 7.5354107,6.84924813 C7.5354107,5.49872473 8.6311111,4.39972186 9.97752026,4.39972186 C11.3239641,4.39972186 12.4196472,5.49872473 12.4196472,6.84924813 C12.4196472,8.19977153 11.3239641,9.29879179 9.97752026,9.29879179 Z M16.4766921,14.3755498 L15.4300588,14.3755498 L15.4300588,13.3257106 C15.4300761,13.0359439 15.1956595,12.8008171 14.9067509,12.8008171 C14.6171489,12.8008171 14.3834429,13.0359439 14.3834429,13.3257106 L14.3834429,14.3755498 L13.3368097,14.3755498 C13.0472424,14.3755498 12.813519,14.6106419 12.813519,14.9004433 C12.813519,15.19021 13.0472424,15.4253368 13.3368097,15.4253368 L14.3834429,15.4253368 L14.3834429,16.4751412 C14.3834429,16.7649427 14.6171489,17 14.9067509,17 C15.1956596,17 15.4300588,16.7649427 15.4300588,16.4751412 L15.4300588,15.4253368 L16.4766921,15.4253368 C16.7656008,15.4253368 17,15.19021 17,14.9004433 C17,14.6106593 16.7656181,14.3755498 16.4766921,14.3755498 Z" fill-rule="nonzero"/>
  </g>
</svg>
