<svg xmlns="http://www.w3.org/2000/svg" viewBox="0 0 20 20" class="design-iconfont">
  <g fill="#FD2423" fill-rule="evenodd">
    <rect fill-opacity=".05" width="20" height="20" rx="4"/>
    <g fill-rule="nonzero">
      <path d="M6.415695,12.621015 C4.75893,12.621015 3.2014125,11.9762775 2.0302425,10.80585 C-0.383625,8.3870325 -0.3843675,4.453515 2.028015,2.034945 C3.201165,0.86427 4.759425,0.2190375 6.41619,0.2190375 C8.072955,0.2190375 9.62973,0.86328 10.8011475,2.0332125 C13.2187275,4.4517825 13.2177375,8.387775 10.799415,10.805355 C9.629235,11.9762775 8.0717175,12.621015 6.415695,12.621015 Z M6.4164375,1.3332825 C5.05692,1.3332825 3.77784,1.862685 2.8163025,2.8227375 C0.8367975,4.80645 0.83754,8.0350875 2.81853,10.0185525 C3.7785825,10.978605 5.0561775,11.50776 6.415695,11.50776 C7.77447,11.50776 9.052065,10.978605 10.0121175,10.0185525 C11.9960775,8.0345925 11.9970675,4.805955 10.0136025,2.8212525 C9.0528075,1.8619425 7.775955,1.3332825 6.4164375,1.3332825 Z" transform="translate(3 2)"/>
      <path d="M8.1415125,15.1254675 C6.6183975,15.1254675 5.09355,14.5502775 3.925845,13.398165 C3.2637825,12.7405575 2.7752175,11.965635 2.4727725,11.0917125 C2.37204,10.8016425 2.52648,10.4841 2.8172925,10.383615 C3.108105,10.282635 3.424905,10.4373225 3.5256375,10.7278875 C3.7721475,11.43945 4.1701275,12.0718125 4.708935,12.6069075 C6.6253275,14.49657 9.7215525,14.4789975 11.6139375,12.5653275 C13.507065,10.650915 13.48974,7.5514725 11.57508,5.6566125 C11.355795,5.440545 11.35431,5.08761 11.5703775,4.8690675 C11.786445,4.65003 12.138885,4.648545 12.35817,4.8646125 C14.70942,7.1916075 14.7312,10.99692 12.40569,13.34817 C11.23551,14.5324575 9.688635,15.1254675 8.1415125,15.1254675 Z" transform="translate(3 2)"/>
      <path d="M5.98851,8.596665 C5.9103,8.596665 5.8303575,8.5909725 5.7491775,8.57835 C5.36481,8.518455 4.9834125,8.3157525 4.675275,8.0078625 C4.241655,7.5791925 4.0770675,6.94386 4.24809,6.352335 C4.333725,6.0580575 4.6403775,5.8882725 4.937625,5.9719275 C5.2333875,6.0575625 5.403915,6.3664425 5.31828,6.661215 C5.260365,6.8614425 5.3145675,7.07454 5.460345,7.21809 C5.60241,7.360155 5.769225,7.4544525 5.9199525,7.4777175 C6.0679575,7.5004875 6.1526025,7.44282 6.2055675,7.38936 C6.37164,7.223535 6.5426625,7.05177 6.0872625,6.5961225 C5.86971,6.37857 5.86971,6.02613 6.0872625,5.8085775 C6.304815,5.591025 6.657255,5.591025 6.8748075,5.8085775 C7.652205,6.585975 7.69725,7.47153 6.99435,8.1761625 C6.72012,8.45163 6.369165,8.596665 5.98851,8.596665 Z" transform="translate(3 2)"/>
      <path d="M6.6208725,6.911685 C6.478065,6.911685 6.3352575,6.8569875 6.2263575,6.74784 C5.4759375,5.9942025 5.4308925,5.1027075 6.1080525,4.41936 C6.7337325,3.79665 7.6979925,3.85704 8.406585,4.564395 C8.8379775,4.99455 9.0033075,5.6244375 8.837235,6.208785 C8.753085,6.5045475 8.447175,6.6782925 8.149185,6.5921625 C7.8534225,6.5080125 7.68141,6.2001225 7.76556,5.9046075 C7.821495,5.70933 7.7648175,5.4982125 7.6197825,5.3531775 C7.5737475,5.306895 7.1752725,4.9254975 6.896835,5.2066575 C6.764175,5.34006 6.580035,5.525685 7.01514,5.962275 C7.23195,6.180075 7.23195,6.53301 7.013655,6.7500675 C6.9050025,6.8569875 6.7629375,6.911685 6.6208725,6.911685 Z" transform="translate(3 2)"/>
      <path d="M4.202055,9.1919025 C4.05999,9.1919025 3.9171825,9.1377 3.8082825,9.0290475 C3.59073,8.811495 3.59073,8.459055 3.8082825,8.2415025 L4.7116575,7.3371375 C4.9284675,7.119585 5.2809075,7.119585 5.4992025,7.3371375 C5.716755,7.55469 5.716755,7.9073775 5.4992025,8.12493 L4.5958275,9.0290475 C4.4869275,9.1377 4.3448625,9.1919025 4.202055,9.1919025 Z" transform="translate(3 2)"/>
      <path d="M7.977915,5.4155475 C7.835355,5.4155475 7.69329,5.361345 7.58439,5.2526925 C7.3668375,5.03514 7.3668375,4.68171 7.58439,4.4651475 L8.37441,3.675375 C8.592705,3.4573275 8.945145,3.4588125 9.1622025,3.675375 C9.379755,3.8929275 9.379755,4.246605 9.1622025,4.4631675 L8.371935,5.2526925 C8.2632825,5.361345 8.1207225,5.4155475 7.977915,5.4155475 Z" transform="translate(3 2)"/>
    </g>
  </g>
</svg>
