<svg xmlns="http://www.w3.org/2000/svg" viewBox="0 0 20 20" class="design-iconfont">
  <g fill="#FD2423" fill-rule="evenodd">
    <rect fill-opacity=".05" width="20" height="20" rx="4"/>
    <g fill-rule="nonzero" stroke="#FD2423" stroke-width=".3">
      <path d="M7.53338371,6.35 C8.43738976,5.7 9.04006045,4.65 9.04006045,3.5 C9.04006045,1.55 7.48316115,0 5.52448139,0 C3.56580162,0 2.00890232,1.55 2.00890232,3.5 C2.00890232,4.7 2.61157302,5.75 3.51557907,6.35 C1.45645418,7.15 0,9.15 0,11.5 L0,12 L1.00445116,12 L1.00445116,11.5 C1.00445116,9 3.01335348,7 5.52448139,7 C8.03560929,7 10.0445116,9 10.0445116,11.5 C10.0445116,11.65 10.0445116,11.85 9.99428906,12 L10.9987402,12 L10.9987402,11.5 C11.0489628,9.15 9.59250859,7.15 7.53338371,6.35 Z M5.52448139,6 C4.11824976,6 3.01335348,4.9 3.01335348,3.5 C3.01335348,2.1 4.11824976,1 5.52448139,1 C6.93071301,1 8.03560929,2.1 8.03560929,3.5 C8.03560929,4.9 6.93071301,6 5.52448139,6 Z" transform="translate(3 4)"/>
      <path d="M11.5111111,6.3 C11.9555556,5.85 12.2222222,5.2 12.2222222,4.45 C12.2222222,3.2 11.4222222,2.15 10.3555556,2 L10.2222222,3 C10.8444444,3.1 11.3333333,3.75 11.3333333,4.5 C11.3333333,5.35 10.7555556,6 10,6 L10,7 C11.7333333,7 13.1111111,8.55 13.1111111,10.5 C13.1111111,10.65 13.1111111,10.85 13.0666667,11 L13.9555556,11 C13.9555556,10.85 14,10.65 14,10.5 C14,8.55 12.9777778,6.95 11.5111111,6.3 Z" transform="translate(3 4)"/>
    </g>
  </g>
</svg>
