<svg xmlns="http://www.w3.org/2000/svg" viewBox="0 0 20 20" class="design-iconfont">
  <g fill="none" fill-rule="evenodd">
    <rect fill-opacity=".05" fill="#FD2423" width="20" height="20" rx="4"/>
    <g fill-rule="nonzero">
      <path d="M14.4592014,-0.13283671 C14.8872835,-0.13283671 15.2761146,0.0417982769 15.5578825,0.323602072 C15.8396611,0.605416553 16.014267,0.994308594 16.014267,1.42240763 L16.014267,1.42240763 L16.014267,8.21370679 C16.014267,8.64180583 15.8396611,9.03069787 15.5578825,9.31251235 C15.2761146,9.59431615 14.8872835,9.76895113 14.4592014,9.76895113 L14.4592014,9.76895113 L3.51277499,9.76895113 L14.4526137,8.74179433 L14.9873302,2.52282479 L2.85753278,2.52282479 L2.85753278,6.28739985 L1.8306782,1.43850467 C1.82623979,1.00407402 2.00170929,0.608962609 2.28705228,0.32361962 C2.568867,0.0418048984 2.95775236,-0.13283671 3.38584029,-0.13283671 L3.38584029,-0.13283671 Z" stroke="#FD2423" stroke-width=".3" fill="#FD2423" transform="translate(2 4)"/>
      <path d="M13.412062,7.02300358 C13.8903099,7.02300358 13.8903099,7.74994041 13.412062,7.74994041 L6.86766389,7.74994041 C6.38941597,7.74994041 6.38941597,7.02300358 6.86766389,7.02300358 L13.412062,7.02300358 Z" stroke="#FD2423" stroke-width=".3" fill="#FD2423" transform="translate(2 4)"/>
      <path d="M2.32129917,10.6334327 C1.98125149,10.2991061 2.48953516,9.78206198 2.82958284,10.1163886 L3.45014303,10.727652 C3.59281287,10.8679976 3.5947795,11.0975566 3.45443385,11.2402265 L2.84317044,11.8607867 C2.53065554,12.1786651 2.03041716,11.7486889 2.29233611,11.3923719 C0.518796186,11.2255662 -0.502598331,9.3034565 0.323384982,7.74499404 C0.967187128,6.52997616 2.47594756,6.06424315 3.69150179,6.70840286 C4.54090584,7.15858164 5.05133492,8.0533969 5.01593564,9.00292014 C5.00538737,9.28647199 4.94710369,9.56179976 4.84662694,9.8181764 C4.67302741,10.2628129 3.9970441,9.99856973 4.17064362,9.55411204 C4.24269368,9.37032181 4.28435042,9.17544696 4.29185936,8.97735399 C4.31671037,8.30548272 3.95395709,7.66847437 3.35359952,7.35023838 C2.49221692,6.89398093 1.42183552,7.22097735 0.965220501,8.08289631 C0.379165673,9.188677 1.09966627,10.5488677 2.35812872,10.6697259 L2.32129917,10.6334327 Z" stroke="#FD2423" stroke-width=".4" fill="#FD2423" transform="translate(2 4)"/>
      <path d="M10.8563409,3.19255066 L14.0317282,3.19255066 C14.232503,3.19255066 14.3953754,3.35542312 14.3953754,3.55619785 L14.3953754,5.22532777 C14.3953754,5.42592372 14.232503,5.58879619 14.0317282,5.58879619 L10.8563409,5.58879619 C10.6557449,5.58879619 10.4928725,5.42592372 10.4928725,5.22532777 L10.4928725,3.55619785 C10.4928725,3.35542312 10.6557449,3.19255066 10.8563409,3.19255066 Z" stroke="#FD2423" stroke-width=".3" fill="#FD2423" transform="translate(2 4)"/>
      <path fill="#FFF" d="M13.6682598 3.91966627L11.2199881 3.91966627 11.2199881 4.86168057 13.6682598 4.86168057z" transform="translate(2 4)"/>
      <path d="M15.1373302,1.64570918 L15.1373302,1.42240763 C15.1373302,1.05017878 14.8312515,0.744278903 14.4592014,0.744278903 L3.38584029,0.744278903 C3.01361144,0.744278903 2.70753278,1.05017878 2.70753278,1.42240763 L2.70753278,1.64570918 L15.1373302,1.64570918 Z" fill="#FFF" transform="translate(2 4)"/>
    </g>
  </g>
</svg>
