<svg xmlns="http://www.w3.org/2000/svg" viewBox="0 0 20 20" class="design-iconfont">
  <g fill="#FD2423" fill-rule="evenodd">
    <rect fill-opacity=".05" width="20" height="20" rx="4"/>
    <path d="M10.0013383,17 C6.02009333,17 4,16.0640512 4,14.2173739 C4,12.9003203 6.08171421,12.0344275 8.15271173,11.7429944 L8.15271174,11.4683747 C6.90689823,10.5576461 6.30140607,8.96877501 6.30140607,6.62610088 C6.30140607,4.35628502 7.65974468,3 9.93703821,3 L10.06028,3 C12.3375735,3 13.6959121,4.35628502 13.6959121,6.62610088 C13.6959121,7.50880705 13.6959121,10.1232986 11.8606814,11.4711769 L11.8553231,11.7429944 C13.9263206,12.0372298 16,12.9003203 16,14.2145717 C16.0026765,16.0640512 13.9825832,17 10.0013383,17 Z M9.93931399,4.00278616 C8.72031663,4.00278616 7.26649077,4.4625029 7.26649077,6.64685396 C7.26649077,8.74762015 7.79155673,10.1044811 8.8707124,10.7898769 C9.00791557,10.876248 9.08970976,11.032273 9.08970976,11.1994428 L9.08970976,12.1606687 C9.08970976,12.4086371 8.91292877,12.6148131 8.68073879,12.6371024 C6.46701846,12.87114 5,13.7292779 5,14.1917808 C5,15.6851637 7.72031663,16 10,16 C12.2823219,16 15,15.6879499 15,14.1917808 C15,13.7264918 13.5329815,12.87114 11.3192612,12.6371024 C11.0817942,12.6120269 10.9050132,12.4002786 10.9102902,12.149524 L10.9313984,11.1882981 C10.9340369,11.0239145 11.0184697,10.8734618 11.1503958,10.7870908 C12.23219,10.0989088 12.7335092,8.78384026 12.7335092,6.6440678 C12.7335092,4.45693058 11.2796834,4 10.060686,4 L9.93931399,4.00278616 L9.93931399,4.00278616 Z" stroke="#FD2423" stroke-width=".3" fill-rule="nonzero"/>
  </g>
</svg>
