<svg xmlns="http://www.w3.org/2000/svg" viewBox="0 0 20 20" class="design-iconfont">
  <g fill="#FD2423" fill-rule="evenodd">
    <rect fill-opacity=".05" width="20" height="20" rx="4"/>
    <g stroke="#FD2423" stroke-width=".2">
      <path d="M11.655,6.7725 L11.655,1.1025 C11.655,0.49329 11.16108,0 10.5525,0 L1.1025,0 C0.49392,0 -8.15347789e-14,0.49329 -8.15347789e-14,1.1025 L-8.15347789e-14,6.7725 C-8.15347789e-14,7.38171 0.49392,7.875 1.1025,7.875 L10.5525,7.875 C11.16108,7.875 11.655,7.38171 11.655,6.7725 Z M10.71,1.1025 L10.71,6.7725 C10.71,6.85944 10.63944,6.93 10.5525,6.93 C10.5525,6.93 1.1025,6.93 1.1025,6.93 C1.01556,6.93 0.945,6.85944 0.945,6.7725 C0.945,6.7725 0.945,1.1025 0.945,1.1025 C0.945,1.01556 1.01556,0.945 1.1025,0.945 C1.1025,0.945 10.5525,0.945 10.5525,0.945 C10.63944,0.945 10.71,1.01556 10.71,1.1025 Z" transform="translate(4 3)"/>
      <path d="M1.89 5.985L4.095 5.985 4.095 5.04 1.89 5.04z" transform="translate(4 3)"/>
      <path d="M-8.15347789e-14 3.15L11.655 3.15 11.655 2.205 -8.15347789e-14 2.205z" transform="translate(4 3)"/>
      <g>
        <path d="M1.45593 -9.99200722e-15L1.45593 4.41 2.40093 4.41 2.40093 -9.99200722e-15z" transform="translate(8 12)"/>
        <path d="M9.35251876e-14,2.9925 L1.59453,4.5864 C1.77912,4.77099 2.07774,4.77099 2.26233,4.5864 L3.85686,2.9925 L3.18843,2.32407 L1.92843,3.58407 L0.66843,2.32407 L9.35251876e-14,2.9925 L9.35251876e-14,2.9925 Z" transform="translate(8 12)"/>
      </g>
    </g>
  </g>
</svg>
