<svg xmlns="http://www.w3.org/2000/svg" viewBox="0 0 20 20" class="design-iconfont">
  <g fill="#FD2423" fill-rule="evenodd">
    <rect fill-opacity=".05" width="20" height="20" rx="4"/>
    <path d="M5.1,4 C3.940205,4 3,4.92341562 3,6.0625 L3,8.125 C3,9.20829375 3.850325,10.096475 4.931188,10.1809 L4.270206,12.344875 C3.865991,13.668175 4.874929,15 6.281642,15 L13.71833,15 C15.12505,15 16.13403,13.668175 15.72978,12.344875 L15.06884,10.1809 C16.14971,10.096475 17,9.20829375 17,8.125 L17,6.0625 C17,4.92341562 16.05983,4 14.9,4 L5.1,4 Z M5.530206,8.219875 L5.349179,8.8125 L5.1,8.8125 C4.713404,8.8125 4.4,8.50470625 4.4,8.125 L4.4,6.0625 C4.4,5.6828075 4.713404,5.375 5.1,5.375 L14.9,5.375 C15.28661,5.375 15.6,5.6828075 15.6,6.0625 L15.6,8.125 C15.6,8.50470625 15.28661,8.8125 14.9,8.8125 L14.6508,8.8125 L14.46978,8.219875 C14.20329,7.3474375 13.38576,6.75 12.45833,6.75 L11.05861,6.75 C11.05343,6.749945 11.04832,6.749945 11.04314,6.75 L7.541642,6.75 C6.614268,6.75 5.796689,7.3474375 5.530206,8.219875 Z M10.4235,8.125 L7.541642,8.125 C7.232515,8.125 6.959991,8.32416875 6.871168,8.61498125 L5.611168,12.7399812 C5.476425,13.1810812 5.81274,13.625 6.281642,13.625 L11.04566,13.625 L10.4235,8.125 Z M12.45007,13.625 L13.71833,13.625 C14.18726,13.625 14.52354,13.1810812 14.38886,12.7399812 L13.12886,8.61498125 C13.04003,8.32416875 12.76745,8.125 12.45833,8.125 L11.83211,8.125 L12.44573,13.5491 C12.4486,13.5746062 12.45,13.5999062 12.45007,13.625 Z"/>
  </g>
</svg>
