<?xml version="1.0" standalone="no"?><!DOCTYPE svg PUBLIC "-//W3C//DTD SVG 1.1//EN" "http://www.w3.org/Graphics/SVG/1.1/DTD/svg11.dtd"><svg t="1689643913345" class="icon" viewBox="0 0 1024 1024" version="1.1" xmlns="http://www.w3.org/2000/svg" p-id="2962" width="32" height="32" xmlns:xlink="http://www.w3.org/1999/xlink"><path d="M42.132065 647.659837a41.604664 41.604664 0 0 0 41.528812-41.64259V312.05394c0-50.896498 42.439032-87.874208 100.768998-87.874207H895.767224l-70.617944 70.162833a41.339183 41.339183 0 0 0 0 58.74715 42.55281 42.55281 0 0 0 58.785077 0l117.115042-116.12897a76.68608 76.68608 0 0 0 0-109.036835L883.706802 12.022496a41.642589 41.642589 0 0 0-67.773504 13.805012c-6.333618 15.511675-2.692736 33.336827 9.215982 45.169694l70.617944 70.162833H184.998763a192.701273 192.701273 0 0 0-128.037689 45.738582 164.067252 164.067252 0 0 0-56.661228 125.155323v293.963307a41.490886 41.490886 0 0 0 41.832219 41.64259z m941.130108-271.359497a41.718441 41.718441 0 0 0-41.680516 41.642589v270.525129c0 59.202261-47.141839 111.312386-100.768998 111.312386H128.10998l70.655869-70.162833a41.45296 41.45296 0 0 0-28.975354-70.997202 40.656517 40.656517 0 0 0-29.582167 12.022496L23.093285 786.771875a76.68608 76.68608 0 0 0 0 109.036835l117.115043 116.12897a41.566738 41.566738 0 0 0 58.557521-58.974705l-70.655869-70.124907h712.702679a176.582784 176.582784 0 0 0 131.564793-60.908924 201.917255 201.917255 0 0 0 51.920496-133.461086V417.942929c0-22.755513-18.280262-41.301257-41.035775-41.642589z" fill="#ff0000" p-id="2963"></path></svg>