<?xml version="1.0" standalone="no"?><!DOCTYPE svg PUBLIC "-//W3C//DTD SVG 1.1//EN" "http://www.w3.org/Graphics/SVG/1.1/DTD/svg11.dtd"><svg t="1688347939097" class="icon" viewBox="0 0 1024 1024" version="1.1" xmlns="http://www.w3.org/2000/svg" p-id="5122" xmlns:xlink="http://www.w3.org/1999/xlink" width="48" height="48"><path d="M502.272 1018.88h-0.512c-20.48 0-39.424-9.728-52.224-26.112L15.36 423.424c-17.408-22.528-17.92-53.76-2.048-77.312l216.064-312.832c12.288-17.92 32.768-28.672 54.272-28.672h400.384c14.336 0 25.6 11.264 25.6 25.6s-11.264 25.6-25.6 25.6h-400.384c-5.12 0-9.728 2.56-12.288 6.656l-216.064 312.832c-3.584 5.12-3.584 12.288 0.512 17.408l434.176 569.344c4.096 5.12 9.216 5.632 11.776 6.144 2.56 0 8.192-0.512 11.776-5.632L967.68 392.704c4.096-5.12 4.096-12.8 0-17.92l-117.248-155.136c-8.704-11.264-6.144-27.136 5.12-35.84 11.264-8.704 27.136-6.144 35.84 5.12l117.248 155.136c17.92 24.064 17.408 57.344-1.024 80.896l-453.632 569.344c-12.8 15.36-31.744 24.576-51.712 24.576z" fill="#ff0000" p-id="5123"></path><path d="M506.368 787.968h-0.512c-15.36 0-29.184-7.168-38.4-18.944l-246.272-323.072c-8.704-11.264-6.656-27.136 4.608-35.84 11.264-8.704 27.136-6.144 35.84 4.608l244.224 320.512 255.488-320.512c8.704-11.264 25.088-12.8 35.84-4.096 11.264 8.704 12.8 25.088 4.096 35.84l-257.536 323.072c-8.704 11.776-22.528 18.432-37.376 18.432z" fill="#ff0000" p-id="5124"></path></svg>