<?xml version="1.0" standalone="no"?><!DOCTYPE svg PUBLIC "-//W3C//DTD SVG 1.1//EN" "http://www.w3.org/Graphics/SVG/1.1/DTD/svg11.dtd"><svg t="1688363651277" class="icon" viewBox="0 0 1024 1024" version="1.1" xmlns="http://www.w3.org/2000/svg" p-id="21583" xmlns:xlink="http://www.w3.org/1999/xlink" width="48" height="48"><path d="M358.509187 574.932308h233.280044l-34.786271-34.487466c-12.277628-12.171204-12.277628-30.429033 0-42.602283 12.279674-12.171204 30.697139-12.171204 42.974767 0l85.950558 85.204567c2.045589 2.028193 6.137791 6.086625 6.13779 10.143011 2.045589 4.058432 2.045589 8.114818 2.045589 10.143011 0 4.058432 0 8.117888-2.045589 10.143011-4.091178 8.116865-8.188496 14.204513-16.366759 16.232706-4.099365 2.028193-8.188496 2.028193-10.234085 2.028193H358.509187c-16.373922 0-30.697139-14.201443-30.69714-30.431079s14.322194-26.373671 30.69714-26.373671z m345.831446-261.698281c38.885636-42.602284 83.898829-103.465466 83.898829-170.407088 0-38.548968-10.223852-68.978001-34.779108-93.322455-45.025473-44.630477-126.878712-44.630477-216.923518-44.630477h-67.524906c-83.901899 0-153.47751-4.058432-200.542432 42.602284-24.560372 24.342408-34.789341 54.773488-34.789341 97.375771 0 93.319385 83.899852 176.493713 122.780371 208.956056 14.326287 14.199397 38.883589 10.143011 49.112557-4.058432 14.323217-14.199397 10.234085-38.543851-4.089131-48.686863-59.349713-52.748365-98.228185-111.580285-98.228185-156.210761 0-34.487465 10.228969-44.630477 14.323216-48.688909 24.555256-20.286022 83.898829-20.286022 151.431922-20.286022h73.669859c73.66986 0 143.246495 0 167.803797 24.344455 0 4.056386 10.228969 14.199397 10.228969 44.630476 0 42.602284-38.880519 101.434204-102.317317 152.152329-10.234085 6.086625-14.326287 20.286022-10.234085 30.429033 4.094248 10.143011 10.234085 20.288069 20.466124 28.402887C757.549485 404.523173 894.656143 536.38948 894.656143 716.941626c0 170.410158-104.364953 233.30051-384.718105 233.30051-280.355199 0-384.720152-62.891376-384.720152-233.30051 0-103.465466 49.115628-208.956056 137.106658-284.017612 14.331403-14.199397 18.420535-34.485419 4.096295-48.686863-14.323217-14.201443-34.786271-18.257829-49.115628-4.058432C114.983801 471.472981 55.642275 591.162968 55.642275 716.941626c0 302.273395 309.001633 302.273395 456.342375 302.273394 147.337673 0 456.344422 0 456.344423-302.273394 2.047636-166.353772-106.413612-322.561463-263.98844-403.707599zM329.857637 755.485477c0 2.030239 0 2.030239 0 0 2.043542 4.058432 4.094248 8.114818 6.139837 10.145057l85.947487 85.204568c12.274558 12.171204 30.692023 12.171204 42.974767 0 12.274558-12.173251 12.274558-30.43108 0-42.602284l-32.745798-32.459272h233.290277c16.368806 0 30.697139-14.201443 30.69714-30.43108s-14.328333-30.429033-30.69714-30.429033H358.509187c-4.096295 0-8.188496 0-10.234086 2.028193-8.188496 4.056386-14.323217 8.114818-16.373922 16.229636-4.089132 4.058432-4.089132 8.114818-4.089132 12.171204 0 4.058432 0 8.114818 2.04559 10.145057v-0.002046z" p-id="21584" fill="#ff0000"></path></svg>