<?xml version="1.0" standalone="no"?><!DOCTYPE svg PUBLIC "-//W3C//DTD SVG 1.1//EN" "http://www.w3.org/Graphics/SVG/1.1/DTD/svg11.dtd"><svg t="1695019194122" class="icon" viewBox="0 0 1024 1024" version="1.1" xmlns="http://www.w3.org/2000/svg" p-id="4173" xmlns:xlink="http://www.w3.org/1999/xlink" width="32" height="32"><path d="M512 0C229.225412 0 0 229.225412 0 512s229.225412 512 512 512 512-229.225412 512-512S794.774588 0 512 0z m228.472471 680.357647a42.526118 42.526118 0 1 1-60.114824 60.114824L512 572.114824l-168.357647 168.357647a42.465882 42.465882 0 1 1-60.144941-60.114824l168.357647-168.357647-168.357647-168.327529A42.496 42.496 0 0 1 313.584941 271.058824c11.745882 0 22.347294 4.758588 30.057412 12.438588l168.357647 168.357647 168.357647-168.357647a42.496 42.496 0 1 1 60.114824 60.175059L572.114824 512l168.357647 168.357647z" p-id="4174"></path></svg>