<?xml version="1.0" standalone="no"?><!DOCTYPE svg PUBLIC "-//W3C//DTD SVG 1.1//EN" "http://www.w3.org/Graphics/SVG/1.1/DTD/svg11.dtd"><svg t="1695088958045" class="icon" viewBox="0 0 1024 1024" version="1.1" xmlns="http://www.w3.org/2000/svg" p-id="12394" xmlns:xlink="http://www.w3.org/1999/xlink" width="32" height="32"><path d="M875.068235 539.617882H873.411765v-107.068235c0-5.451294-4.788706-10.691765-8.342589-14.787765L834.258824 383.819294l-16.685177-103.122823c-1.596235-11.113412-11.836235-12.167529-23.070118-12.16753h-50.657882c-11.233882 0-20.751059 1.054118-22.347294 12.16753l-15.932235 106.676705-33.460706 32.13553c-3.553882 4.126118-9.517176 7.589647-9.517177 13.010823v107.068236h-29.967059c6.535529-35.207529 13.312-106.465882-23.461647-162.514824-26.624-40.568471-69.632-64.783059-127.909647-71.951059-10.089412-1.144471-20.178824 2.710588-26.74447 10.541177l-28.641883 34.153412-26.624-33.551059a30.208 30.208 0 0 0-25.690353-11.294118c-2.861176 0.210824-70.445176 5.571765-115.079529 63.307294-32.617412 42.224941-43.760941 99.900235-33.671529 171.309177H148.931765c-15.721412 0-28.461176 13.492706-28.461177 30.117647s12.739765 30.117647 28.461177 30.117647H180.705882v328.041412c0 15.751529 14.215529 33.370353 28.852706 33.370353h607.021177c14.637176 0 26.714353-17.588706 26.714353-33.370353V599.853176h31.774117c15.721412 0 28.461176-13.492706 28.461177-30.117647s-12.739765-30.117647-28.461177-30.117647zM722.823529 440.952471l24.756706-32.587295c2.831059-3.252706 2.921412-7.619765 3.523765-11.89647l12.348235-97.822118h11.535059l14.095059 97.822118c0.632471 4.276706 6.234353 11.866353 9.065412 15.119059l15.058823 29.364706v98.635294h-90.352941v-98.635294z m-417.159529-35.20753c17.799529-23.401412 42.345412-33.520941 57.735529-37.737412l38.27953 48.218353c5.632 7.077647 14.155294 11.264 23.190588 11.384471 8.252235-0.632471 17.648941-3.855059 23.461647-10.752l41.381647-49.332706c31.924706 6.595765 54.573176 20.570353 68.99953 42.465882 29.786353 45.146353 16.685176 111.826824 12.40847 129.656471H285.876706c-9.607529-58.307765-3.282824-103.574588 19.787294-133.903059zM240.941176 901.029647v-210.823529h542.117648v210.823529H240.941176z m542.117648-271.058823H240.941176v-30.117648h542.117648v30.117648zM428.875294 287.653647c63.427765 0 115.049412-51.621647 115.049412-115.049412s-51.621647-115.049412-115.049412-115.049411-115.049412 51.621647-115.049412 115.049411 51.591529 115.049412 115.049412 115.049412z m0-169.893647c30.238118 0 54.814118 24.576 54.814118 54.814118s-24.576 54.814118-54.814118 54.814117-54.814118-24.576-54.814118-54.814117 24.576-54.814118 54.814118-54.814118z" fill="#ffffff" p-id="12395"></path></svg>