<?xml version="1.0" standalone="no"?><!DOCTYPE svg PUBLIC "-//W3C//DTD SVG 1.1//EN" "http://www.w3.org/Graphics/SVG/1.1/DTD/svg11.dtd"><svg t="1695018644505" class="icon" viewBox="0 0 1024 1024" version="1.1" xmlns="http://www.w3.org/2000/svg" p-id="4052" xmlns:xlink="http://www.w3.org/1999/xlink" width="32" height="32"><path d="M565.262893 34.666428l112.054265 237.611358a59.834802 59.834802 0 0 0 44.796108 34.045042l250.794213 38.396664a62.970529 62.970529 0 0 1 32.957137 105.974794l-181.552228 185.007927a63.99444 63.99444 0 0 0-17.022521 54.971225l42.81228 261.161311a60.09078 60.09078 0 0 1-86.264505 65.530307l-223.980542-123.573264a57.019046 57.019046 0 0 0-55.291197 0l-224.556491 123.253292a60.026785 60.026785 0 0 1-86.200512-65.530307l43.196248-261.481284a63.99444 63.99444 0 0 0-17.15051-54.971224L18.110427 450.374314a62.842541 62.842541 0 0 1 32.893142-105.910799l250.730218-38.396665a59.770807 59.770807 0 0 0 44.796108-34.045042L458.584161 34.666428a58.36293 58.36293 0 0 1 106.614737 0" fill="#f4ea2a" p-id="4053"></path></svg>