<?xml version="1.0" standalone="no"?><!DOCTYPE svg PUBLIC "-//W3C//DTD SVG 1.1//EN" "http://www.w3.org/Graphics/SVG/1.1/DTD/svg11.dtd"><svg t="1695022358148" class="icon" viewBox="0 0 1024 1024" version="1.1" xmlns="http://www.w3.org/2000/svg" p-id="8691" xmlns:xlink="http://www.w3.org/1999/xlink" width="32" height="32"><path d="M456.896 921.6c27.648 0 50.08 22.912 50.08 51.2s-22.432 51.2-50.08 51.2H136.736c-55.328 0-100.16-45.856-100.16-102.4V102.4c0-56.544 44.832-102.4 100.16-102.4h651.072c55.328 0 100.16 45.856 100.16 102.4v277.888c0 28.288-22.432 51.2-50.08 51.2s-50.08-22.912-50.08-51.2V102.4H136.736v819.2h320.16z m-172.48-484.064c-27.648 0-50.08-22.912-50.08-51.2s22.432-51.2 50.08-51.2h253.984c27.648 0 50.08 22.912 50.08 51.2s-22.432 51.2-50.08 51.2H284.416z m0 251.328c-27.648 0-50.08-22.912-50.08-51.2s22.432-51.2 50.08-51.2h136.704c27.648 0 50.08 22.912 50.08 51.2s-22.432 51.2-50.08 51.2H284.416z m439.232-15.2c198.912-13.888 263.776 195.68 263.776 260.896v16.32c-64.864-146.752-215.136-146.752-263.776-146.752v94.912l-175.104-156.96 175.104-156.928v88.512z" p-id="8692" fill="#f5978b"></path></svg>