<?xml version="1.0" standalone="no"?><!DOCTYPE svg PUBLIC "-//W3C//DTD SVG 1.1//EN" "http://www.w3.org/Graphics/SVG/1.1/DTD/svg11.dtd"><svg t="1695367105710" class="icon" viewBox="0 0 1088 1024" version="1.1" xmlns="http://www.w3.org/2000/svg" p-id="28111" xmlns:xlink="http://www.w3.org/1999/xlink" width="34" height="32"><path d="M766.656 64H197.888v65.984h-197.76v309.504c0 119.616 133.504 218.048 264.512 228.288 43.008 46.08 118.656 79.552 185.984 93.824v80.896c-64.384 19.776-179.392 66.24-185.984 116.864h441.856c-6.656-50.624-133.376-97.152-197.888-116.864V761.6c67.584-14.272 146.624-47.744 189.696-93.824 130.944-10.24 258.56-108.672 258.56-228.288V129.984h-190.208V64zM60.864 188.608H193.28v266.624c0 52.608 13.568 102.656 37.44 147.712C131.648 571.392 60.864 490.112 60.864 395.008V188.608z m518.656 325.184l-98.816-54.464-98.944 54.464 18.88-115.2L320.64 317.056l110.528-16.832 49.536-104.704 49.408 104.704L640.64 317.056 560.64 398.592l18.88 115.2z m146.88 97.664c24-47.104 37.76-99.2 37.76-154.304V190.336h132.736V394.24c0 99.392-71.104 184.256-170.496 217.216z" fill="#d1a24f" p-id="28112"></path></svg>