<?xml version="1.0" standalone="no"?><!DOCTYPE svg PUBLIC "-//W3C//DTD SVG 1.1//EN" "http://www.w3.org/Graphics/SVG/1.1/DTD/svg11.dtd"><svg t="1695365560973" class="icon" viewBox="0 0 1024 1024" version="1.1" xmlns="http://www.w3.org/2000/svg" p-id="26934" xmlns:xlink="http://www.w3.org/1999/xlink" width="32" height="32"><path d="M512 1023.112533c-263.918933 0-477.730133-209.7152-477.730133-468.5824C34.269867 295.7312 248.081067 86.016 512 86.016V19.933867c0-14.1312 12.629333-24.507733 25.122133-16.384l227.191467 151.1424c11.195733 7.441067 10.922667 25.3952 0 32.768-12.288 8.465067-213.128533 142.1312-227.7376 151.415466-10.581333 6.826667-24.576-0.750933-24.576-16.247466v-66.3552c-167.936 0-303.991467 133.393067-303.991467 298.120533 0 164.727467 136.055467 298.461867 303.991467 298.461867s303.991467-133.461333 303.991467-298.1888a86.016 86.016 0 0 1 86.903466-85.1968 86.016 86.016 0 0 1 86.8352 85.1968c0 258.730667-213.8112 468.445867-477.730133 468.445866z" fill="#707070" p-id="26935"></path></svg>