<?xml version="1.0" standalone="no"?><!DOCTYPE svg PUBLIC "-//W3C//DTD SVG 1.1//EN" "http://www.w3.org/Graphics/SVG/1.1/DTD/svg11.dtd"><svg t="1695610323384" class="icon" viewBox="0 0 1024 1024" version="1.1" xmlns="http://www.w3.org/2000/svg" p-id="30324" xmlns:xlink="http://www.w3.org/1999/xlink" width="32" height="32"><path d="M136.586 786.813c-13.785 0-24.96-11.175-24.96-24.96V177.171c0-58.521 47.609-106.131 106.13-106.131 13.785 0 24.96 11.175 24.96 24.96s-11.175 24.96-24.96 24.96c-30.994 0-56.21 25.216-56.21 56.211v584.683c0 13.784-11.175 24.959-24.96 24.959zM806.244 952.96H293.853c-13.785 0-24.96-11.175-24.96-24.96s11.175-24.96 24.96-24.96h512.391c30.995 0 56.211-25.216 56.211-56.211V177.171c0-30.995-25.216-56.211-56.211-56.211-13.785 0-24.96-11.175-24.96-24.96s11.175-24.96 24.96-24.96c58.521 0 106.131 47.61 106.131 106.131v669.658c0 58.52-47.611 106.131-106.131 106.131zM626.992 120.96H385.171c-13.785 0-24.96-11.175-24.96-24.96s11.175-24.96 24.96-24.96h241.821c13.785 0 24.96 11.175 24.96 24.96s-11.175 24.96-24.96 24.96z" fill="#ffffff" p-id="30325"></path><path d="M765.659 344.179H278.635c-13.785 0-24.96-11.175-24.96-24.96s11.175-24.96 24.96-24.96h487.024c13.785 0 24.96 11.175 24.96 24.96s-11.175 24.96-24.96 24.96zM725.073 536.96H278.635c-13.785 0-24.96-11.175-24.96-24.96s11.175-24.96 24.96-24.96h446.438c13.785 0 24.96 11.175 24.96 24.96s-11.175 24.96-24.96 24.96zM583.024 729.74H258.342c-13.785 0-24.96-11.175-24.96-24.96s11.175-24.96 24.96-24.96h324.683c13.785 0 24.96 11.175 24.96 24.96s-11.176 24.96-24.961 24.96z" fill="#ffffff" p-id="30326"></path></svg>